<svg xmlns="http://www.w3.org/2000/svg" xmlns:xlink="http://www.w3.org/1999/xlink" xml:space="preserve" version="1.1" style="shape-rendering:geometricPrecision;text-rendering:geometricPrecision;image-rendering:optimizeQuality;" viewBox="0 0 296.32 506.42499999999995" x="0px" y="0px" fill-rule="evenodd" clip-rule="evenodd"><defs><style type="text/css">
   
    .fil0 {fill:black}
   
  </style></defs><g><path class="fil0" d="M148.16 0c81.83,0 148.16,68.51 148.16,153.03 0,74.55 -71.87,180.47 -127.3,242.75 -11.11,12.48 -30.61,12.48 -41.72,0 -55.43,-62.28 -127.3,-168.2 -127.3,-242.75 0,-84.52 66.33,-153.03 148.16,-153.03zm0 75.66c43.83,0 79.34,35.51 79.34,79.34 0,43.83 -35.51,79.34 -79.34,79.34 -43.83,0 -79.34,-35.51 -79.34,-79.34 0,-43.83 35.51,-79.34 79.34,-79.34z"/></g><text x="0" y="420.14" fill="#000000" font-size="5px" font-weight="bold" font-family="'Helvetica Neue', Helvetica, Arial-Unicode, Arial, Sans-serif">Created by Vincencio</text><text x="0" y="425.14" fill="#000000" font-size="5px" font-weight="bold" font-family="'Helvetica Neue', Helvetica, Arial-Unicode, Arial, Sans-serif">from the Noun Project</text></svg>