<svg id="Layer_1" data-name="Layer 1" xmlns="http://www.w3.org/2000/svg" viewBox="0 0 510.06 411"><defs><style>.cls-1{fill:none;}.cls-2{fill:#70827a;}.cls-3{fill:#353535;}</style></defs><polygon class="cls-1" points="92.06 411 223.14 411 157.6 240.03 92.06 411"/><polygon class="cls-1" points="40.71 411 51.73 411 157.6 134.8 263.48 411 274.5 411 157.6 106.47 40.71 411"/><polygon class="cls-2" points="51.73 411 92.06 411 157.6 240.03 223.14 411 263.48 411 157.6 134.8 51.73 411"/><polygon class="cls-3" points="157.6 106.47 274.5 411 315.21 411 157.6 0.42 0 411 40.71 411 157.6 106.47"/><path class="cls-3" d="M407.22,599.53v-411h63a142.12,142.12,0,0,1,142.2,142.2c0,66.6-45.6,124.2-110.4,138.6l113.4,130.2h-54.6L448,471.13v128.4ZM448,432.13h22.2c55.8,0,101.4-45.6,101.4-101.4s-45.6-101.4-101.4-101.4H448Z" transform="translate(-132.97 -188.53)"/><path class="cls-2" d="M434.83,599.53v-411h63A142.12,142.12,0,0,1,640,330.73c0,66.6-45.6,124.2-110.4,138.6L643,599.53h-54.6l-112.8-128.4v128.4Zm40.8-167.4h22.2c55.8,0,101.4-45.6,101.4-101.4s-45.6-101.4-101.4-101.4h-22.2Z" transform="translate(-132.97 -188.53)"/></svg>